<svg width="40" height="40" viewBox="0 0 40 40" fill="none" xmlns="http://www.w3.org/2000/svg">
<path d="M33.8207 8.92339C31.2012 6.94889 25.0863 5.29419 25.0863 5.29419L24.7649 6.24544C30.012 7.50049 32.9449 10.6581 32.9449 10.6581C29.2968 8.29189 23.3426 7.18074 18.7303 7.26069C14.118 7.34059 7.30409 10.5861 7.30409 10.5861C10.0843 7.42854 15.1626 6.24544 15.1626 6.24544C15.1787 6.24544 15.1867 6.23744 15.2028 6.23744L14.9216 5.45404C10.245 6.07759 6.50859 8.53169 6.50859 8.53169C1.74362 15.2465 1.26953 27.5651 1.26953 27.5651C4.84527 32.2255 12.2217 32.6972 12.2217 32.6972L13.3386 30.8026C8.96739 28.988 6.34789 25.9024 6.34789 25.9024C22.1454 35.3831 33.4993 25.7425 33.4993 25.7425C31.836 29.2198 26.4362 30.8026 26.4362 30.8026L27.8665 32.5373C35.1707 32.1456 38.8187 27.4052 38.8187 27.4052C38.5053 18.0844 33.8207 8.92339 33.8207 8.92339ZM18.0232 21.5617C16.6733 25.5906 12.7842 24.4874 12.7842 24.4874C12.0449 24.3835 11.3619 23.9918 10.8798 23.4642C10.2129 22.7288 9.85129 20.5385 11.2012 18.1723C12.5511 15.8061 15.4117 16.8293 16.1992 16.8293C16.9867 16.8213 18.9151 18.8837 18.0232 21.5617ZM28.3969 23.4003C27.5853 25.015 24.9336 24.8871 24.5881 24.8312C24.3149 24.7832 22.9409 24.3356 22.3864 22.6648C22.1936 22.1932 21.9605 21.4258 21.9766 20.5705C22.0088 19.1555 22.0088 17.6287 24.5238 16.9412C27.0469 16.2458 28.3486 17.7166 28.6942 18.8438C29.0477 19.9629 29.2084 21.7855 28.3969 23.4003Z" fill="#8B9DFF"/>
<path d="M33.5796 8.65955C33.5796 8.65955 37.4446 21.034 37.758 23.8239C38.0714 26.6138 37.758 27.3012 37.758 27.3012C37.758 27.3012 34.0537 31.2502 27.3843 32.4573L27.2236 33.1447C27.2236 33.1447 37.4366 31.6739 39.5016 26.6697C39.5016 26.6697 36.6411 11.977 34.3188 8.65955H33.5796Z" fill="#6A82CE"/>
<path d="M7.59351 26.7736C7.59351 26.7736 18.8109 33.0408 33.0495 26.35C33.0495 26.35 29.0238 30.0911 21.5107 30.3549C13.9977 30.6187 7.59351 26.7736 7.59351 26.7736Z" fill="#6A82CE"/>
<path d="M1.18921 27.509C1.18921 27.509 4.15425 30.6666 11.4021 31.8257L13.0976 30.2989L13.7886 30.6666L12.519 33.1447C12.519 33.1447 3.62392 31.9296 1.18921 27.509Z" fill="#6A82CE"/>
<path d="M16.6412 16.9253C16.6412 16.9253 15.4761 16.1898 13.411 16.1339C11.3459 16.0779 10.6549 17.6607 10.3415 18.4521C10.0201 19.2435 8.5978 22.7208 12.037 24.1917C12.037 24.1917 10.3415 22.1932 10.8236 20.0828C11.3057 17.9725 12.3584 17.0851 13.5235 16.9253C14.6886 16.7654 16.6412 16.9253 16.6412 16.9253Z" fill="#6A82CE"/>
<path d="M26.9104 16.9813C26.9104 16.9813 25.215 16.5576 23.415 16.7175C21.6151 16.8774 21.35 18.9797 21.3017 19.8751C21.2455 20.7704 21.7758 24.3516 24.6364 24.9271C24.6364 24.9271 22.3624 23.2964 22.3062 21.0342C22.2499 18.7719 22.8927 16.9813 26.9104 16.9813Z" fill="#6A82CE"/>
<path d="M34.6967 8.21195C34.6967 8.21195 30.2531 5.7658 24.3792 4.3429L23.9051 6.3973C23.9051 6.3973 19.5982 5.6219 15.8538 6.1335L15.4841 4.58271C15.4841 4.58271 8.0193 6.1655 5.16675 7.82025C5.16675 7.82025 2.3865 14.9268 1.91242 17.0611C1.43833 19.1955 0 27.9568 0 27.9568C0 27.9568 5.71315 33.6404 13.5717 33.6404L14.6003 30.4828C14.6003 30.4828 19.5982 31.2743 25.0784 30.8745L26.7416 33.5605C26.7416 33.5605 35.0743 33.2407 40 27.2453C40.008 27.2453 38.3447 15.3185 34.6967 8.21195ZM27.8666 32.5373L26.4363 30.8026C26.4363 30.8026 31.8361 29.2198 33.4994 25.7505C33.4994 25.7505 22.1454 35.3831 6.34795 25.9104C6.34795 25.9104 8.96745 28.988 13.3307 30.8106L12.2218 32.7052C12.2218 32.7052 4.83728 32.2335 1.26959 27.5731C1.26959 27.5731 1.74367 15.2545 6.50865 8.5397C6.50865 8.5397 10.2371 6.09355 14.9216 5.46205L15.2029 6.24545C15.1868 6.24545 15.1788 6.25345 15.1627 6.25345C15.1627 6.25345 10.0844 7.4365 7.30415 10.5941C7.30415 10.5941 14.1342 7.3566 18.7384 7.27665C23.3427 7.1967 29.2969 8.29185 32.945 10.6581C32.945 10.6581 30.004 7.50045 24.7649 6.23745L25.0863 5.28615C25.0863 5.28615 31.2013 6.9409 33.8208 8.9154C33.8208 8.9154 38.5054 18.0763 38.8188 27.3972C38.8188 27.4052 35.1707 32.1455 27.8666 32.5373Z" fill="black"/>
<path d="M16.1912 16.8213C15.3957 16.8213 12.5431 15.7981 11.1932 18.1643C9.84323 20.5304 10.2129 22.7208 10.8718 23.4562C11.3539 23.9918 12.0369 24.3755 12.7761 24.4794C12.7761 24.4794 16.6652 25.5826 18.0152 21.5537C18.9151 18.8837 16.9867 16.8213 16.1912 16.8213ZM16.9063 22.5849C16.7295 23.1444 15.7814 23.5601 14.9537 23.8239C14.6484 23.8559 12.9208 23.9998 11.9806 23.1365C10.9521 22.1852 11.1851 18.6359 12.4547 17.7646C13.7243 16.8932 15.9501 17.1331 16.7456 18.3161C17.5411 19.5072 17.2277 21.5617 16.9063 22.5849Z" fill="black"/>
<path d="M28.7022 18.8357C28.3567 17.7086 27.055 16.2457 24.5319 16.9332C22.0088 17.6286 22.0088 19.1555 21.9847 20.5624C21.9686 21.4177 22.2016 22.1852 22.3945 22.6568C22.9489 24.3355 24.3149 24.7832 24.5961 24.8231C24.9417 24.8791 27.5933 25.007 28.4049 23.3922C29.2084 21.7855 29.0477 19.9629 28.7022 18.8357ZM28.0353 22.4969C27.5451 23.704 25.922 24.3115 25.3434 24.2795C24.9577 24.2636 24.2105 23.9918 23.6882 23.672C21.9445 21.8974 22.4989 19.4832 23.1096 18.6599C23.7444 17.7965 26.4202 17.0211 27.4326 17.7645C28.437 18.524 28.5254 21.2898 28.0353 22.4969Z" fill="black"/>
</svg>
