<svg width="41" height="40" viewBox="0 0 41 40" fill="none" xmlns="http://www.w3.org/2000/svg">
<g clip-path="url(#clip0)">
<path d="M0.752289 27.9562C0.646498 28.0626 0.646555 28.0626 0.646635 28.0627L0.646902 28.063L0.64783 28.0639L0.651247 28.0673L0.664299 28.08C0.67575 28.0912 0.692682 28.1075 0.714987 28.1287C0.759594 28.1712 0.825697 28.2331 0.912422 28.3116C1.08586 28.4687 1.34184 28.6926 1.67339 28.9609C2.33639 29.4975 3.30218 30.2124 4.51501 30.9273C6.93944 32.3563 10.3589 33.7899 14.324 33.7899H14.4329L14.4666 33.6863L15.4558 30.6495C15.4848 30.6537 15.5186 30.6586 15.557 30.664C15.7052 30.685 15.9228 30.7145 16.2008 30.7486C16.757 30.8168 17.5553 30.9034 18.5251 30.9776C20.4429 31.1242 23.034 31.222 25.7509 31.0301L27.3664 33.6389L27.4124 33.7132L27.4997 33.7098L27.4939 33.5599C27.4997 33.7098 27.4998 33.7098 27.4999 33.7098L27.5003 33.7098L27.5016 33.7097L27.5066 33.7095L27.5254 33.7086C27.5419 33.7078 27.5662 33.7065 27.5979 33.7046C27.6613 33.7007 27.7544 33.6943 27.8745 33.6839C28.1145 33.6633 28.4621 33.627 28.8943 33.5648C29.7584 33.4402 30.9617 33.2114 32.32 32.794C35.0349 31.9597 38.3799 30.3686 40.8681 27.34L40.8517 27.3265C40.884 27.2916 40.9016 27.2568 40.9022 27.2495C40.9023 27.2451 40.9021 27.2385 40.902 27.2362L40.9014 27.228L40.9003 27.2182L40.8968 27.1906C40.8937 27.1672 40.889 27.1328 40.8826 27.088C40.8699 26.9984 40.8506 26.8663 40.8246 26.6958C40.7726 26.3549 40.6939 25.8603 40.5878 25.2447C40.3757 24.0136 40.0541 22.2981 39.618 20.3601C38.7465 16.4873 37.4154 11.7137 35.5824 8.14288L35.5614 8.10209L35.5213 8.07998L35.4489 8.21139C35.5213 8.07998 35.5212 8.07996 35.5212 8.07993L35.521 8.07982L35.5203 8.07945L35.5177 8.07802L35.5077 8.07256L35.4686 8.05144C35.4342 8.03293 35.3831 8.00571 35.3161 7.97063C35.1822 7.90046 34.9847 7.79882 34.7294 7.6725C34.2189 7.41987 33.4773 7.06845 32.5519 6.67254C30.7015 5.88085 28.114 4.91048 25.1669 4.19655L25.0195 4.16085L24.9854 4.3086L24.5431 6.22516C24.5265 6.22242 24.5084 6.21947 24.489 6.21634C24.3629 6.19598 24.179 6.16753 23.9468 6.13502C23.4823 6.07001 22.8241 5.98874 22.0485 5.92351C20.5356 5.79629 18.5695 5.7296 16.7206 5.96647L16.3823 4.54737L16.3484 4.40506L16.2053 4.43541L16.2364 4.58215C16.2053 4.43541 16.2052 4.43542 16.2052 4.43543L16.2049 4.43549L16.2038 4.43571L16.1997 4.43659L16.1835 4.44007L16.1201 4.45373C16.0645 4.46577 15.9827 4.48364 15.8776 4.50695C15.6674 4.55357 15.3641 4.62199 14.9913 4.70926C14.2457 4.88378 13.2217 5.13376 12.1082 5.43561C9.8877 6.03753 7.2896 6.85122 5.84377 7.68994L5.79844 7.71623L5.77935 7.76504L5.91904 7.81969L5.77931 7.76512L5.77922 7.76537L5.77883 7.76636L5.77731 7.77024L5.77132 7.78559L5.74793 7.84557L5.65879 8.07499C5.58178 8.27364 5.47125 8.55976 5.33715 8.90976C5.06895 9.60973 4.70637 10.5653 4.32893 11.5878C3.57592 13.6277 2.75801 15.9487 2.51827 17.0281C2.28022 18.0998 1.8014 20.8282 1.38285 23.2836C1.17338 24.5124 0.978743 25.6745 0.836471 26.5293C0.765334 26.9567 0.707287 27.3074 0.667023 27.5512L0.62055 27.833L0.608416 27.9067L0.605317 27.9256L0.604534 27.9303L0.604337 27.9315L0.604287 27.9318C0.604276 27.9319 0.60427 27.9319 0.752289 27.9562ZM0.752289 27.9562L0.646498 28.0626L0.591763 28.0081L0.60427 27.9319L0.752289 27.9562ZM28.6863 32.3827L27.4457 30.878C27.4539 30.8753 27.4624 30.8725 27.4711 30.8696C27.6238 30.819 27.8433 30.7429 28.1117 30.6407C28.6481 30.4365 29.3811 30.1277 30.1669 29.7094C31.7324 28.8759 33.5339 27.5939 34.3869 25.8148L34.1546 25.6356L34.1543 25.6358L34.1531 25.6369L34.1474 25.6416L34.1237 25.6611C34.1025 25.6784 34.0704 25.7043 34.0277 25.7378C33.9423 25.8048 33.8143 25.9023 33.6455 26.0235C33.3078 26.2657 32.8068 26.6023 32.1559 26.977C30.854 27.7267 28.9538 28.6288 26.563 29.2368C21.7852 30.4518 15.039 30.4952 7.17738 25.7811L6.98601 26.007L7.10024 25.9098C6.98601 26.007 6.98605 26.007 6.98609 26.0071L6.98623 26.0073L6.98669 26.0078L6.98833 26.0097L6.99448 26.0168L7.01817 26.044C7.039 26.0676 7.06988 26.1022 7.11058 26.1468C7.19199 26.2359 7.31273 26.3647 7.4711 26.5247C7.7878 26.8447 8.25517 27.2897 8.85953 27.7918C10.0388 28.7716 11.7419 29.9707 13.8672 30.8816L12.892 32.5478C12.8384 32.5432 12.7622 32.5362 12.6655 32.526C12.4588 32.5043 12.1589 32.468 11.7877 32.4099C11.0449 32.2937 10.0175 32.0905 8.87968 31.7428C6.6145 31.0505 3.93102 29.7913 2.1741 27.5244C2.1751 27.5026 2.17644 27.4745 2.17817 27.4401C2.18277 27.3489 2.19016 27.2139 2.20125 27.0396C2.22343 26.691 2.26045 26.1852 2.31974 25.5569C2.43833 24.3004 2.64598 22.5551 3.00211 20.6008C3.71364 16.6961 5.01435 11.9779 7.36657 8.64952L7.38437 8.63813C7.41218 8.62047 7.45385 8.5943 7.5087 8.56067C7.61841 8.4934 7.78083 8.39628 7.99057 8.27761C8.41008 8.04024 9.01858 7.71681 9.77283 7.37366C11.2561 6.69883 13.2989 5.94965 15.5739 5.62676L15.7573 6.13754C15.7274 6.1452 15.6925 6.15434 15.6527 6.16496C15.5067 6.20392 15.2956 6.263 15.0338 6.34374C14.5104 6.50518 13.7837 6.75347 12.9694 7.10116C11.3438 7.79525 9.35547 8.89118 7.94386 10.4944L8.12069 10.7291L8.05644 10.5935L8.12073 10.7291L8.12093 10.729L8.1218 10.7286L8.12539 10.7269L8.13988 10.72L8.1974 10.6932C8.24816 10.6697 8.32336 10.635 8.42081 10.5909C8.6157 10.5026 8.89952 10.3763 9.25458 10.2243C9.96481 9.92044 10.9596 9.51442 12.0977 9.10597C14.3785 8.28741 17.2174 7.46558 19.4933 7.42606C24.0816 7.34639 30.0022 8.43958 33.6156 10.7833L33.807 10.5553L33.6972 10.6575C33.807 10.5553 33.807 10.5552 33.8069 10.5551L33.8067 10.555L33.8062 10.5544L33.8043 10.5524L33.7973 10.545L33.7704 10.5171C33.7468 10.4928 33.7118 10.4574 33.6656 10.4122C33.5732 10.3217 33.436 10.1916 33.2551 10.0319C32.8935 9.71257 32.3572 9.27445 31.6564 8.79685C30.2831 7.86109 28.2763 6.77263 25.7116 6.1302L25.9353 5.46802C25.9719 5.47826 26.0154 5.49055 26.0654 5.5048C26.237 5.55371 26.4853 5.62583 26.7915 5.71855C27.4041 5.90404 28.248 6.17184 29.1732 6.50109C31.0163 7.15693 33.1624 8.04978 34.4551 9.01381C34.4585 9.02067 34.4625 9.02866 34.4671 9.03777C34.4739 9.05151 34.4821 9.06781 34.4914 9.08661C34.5255 9.1554 34.5757 9.25776 34.6397 9.39147C34.7678 9.65892 34.9514 10.0518 35.1728 10.5525C35.6155 11.5541 36.2094 12.9867 36.813 14.71C38.0161 18.1448 39.2555 22.7268 39.4193 27.3476C39.4169 27.3506 39.4144 27.3538 39.4117 27.3571C39.3843 27.3909 39.3427 27.4411 39.2869 27.5053C39.1752 27.6338 39.0067 27.8184 38.7814 28.0415C38.3309 28.4876 37.6537 29.087 36.75 29.6985C34.9555 30.9129 32.2684 32.1751 28.6863 32.3827ZM39.448 27.3111L39.4476 27.3116C39.4483 27.3106 39.4485 27.3103 39.448 27.3111Z" fill="#CFCFCF" stroke="#CFCFCF" stroke-width="0.3"/>
<path d="M17.6588 22.5844L17.5157 22.5392C17.4456 22.7614 17.2093 22.9809 16.8523 23.1846C16.507 23.3815 16.0805 23.546 15.6754 23.6758C15.5113 23.6923 15.0288 23.7305 14.475 23.6664C13.8991 23.5999 13.2702 23.4254 12.8348 23.0257C12.6108 22.8185 12.4417 22.4539 12.3414 21.9864C12.2421 21.523 12.2147 20.9778 12.2579 20.4319C12.3012 19.8861 12.4146 19.3459 12.5926 18.892C12.7716 18.4353 13.0098 18.0816 13.2921 17.8878C13.8903 17.4773 14.7253 17.3228 15.5124 17.4184C16.3011 17.5142 17.0084 17.8564 17.3735 18.3992C17.7459 18.957 17.8661 19.7313 17.8473 20.5094C17.8286 21.284 17.6728 22.0395 17.5157 22.5395L17.6588 22.5844ZM17.6588 22.5844C17.482 23.144 16.5339 23.5597 15.7062 23.8235L12.7331 23.136C11.7046 22.1847 11.9376 18.6355 13.2072 17.7641C14.4768 16.8928 16.7026 17.1326 17.4981 18.3157C18.2936 19.5068 17.9802 21.5612 17.6588 22.5844ZM11.5126 23.5559L11.5128 23.5561C12.0151 24.1141 12.7258 24.5151 13.4983 24.6262L13.5013 24.627C13.5096 24.6292 13.5215 24.6322 13.5368 24.636C13.5674 24.6436 13.6118 24.6539 13.6683 24.6654C13.7814 24.6886 13.9434 24.7167 14.1417 24.7376C14.5378 24.7791 15.082 24.7917 15.6713 24.674C16.8589 24.4369 18.2159 23.672 18.9099 21.601C19.375 20.2208 19.1092 18.9941 18.6228 18.1133C18.38 17.6736 18.0811 17.3178 17.7876 17.0702C17.5006 16.828 17.1965 16.6708 16.9437 16.6708C16.8567 16.6708 16.7352 16.6565 16.578 16.6331C16.5084 16.6227 16.4337 16.6109 16.3537 16.5982C16.3446 16.5968 16.3354 16.5953 16.3262 16.5938C16.2361 16.5795 16.1398 16.5644 16.0388 16.5495C15.6353 16.4901 15.1511 16.4346 14.6465 16.4551C13.633 16.4964 12.5243 16.8468 11.8154 18.0895C11.1275 19.2952 10.8755 20.4602 10.8817 21.4223C10.8878 22.3777 11.1496 23.1507 11.5126 23.5559Z" fill="#CFCFCF" stroke="#CFCFCF" stroke-width="0.3"/>
<path d="M22.587 20.5591C22.5704 21.4387 22.8088 22.2248 23.0059 22.7082C23.583 24.448 25.0015 24.924 25.3259 24.9709C25.5185 25.0017 26.2842 25.0468 27.1077 24.8807C27.9297 24.7149 28.8539 24.3292 29.2912 23.459L29.2914 23.4588C30.1176 21.8066 29.9505 19.9415 29.5979 18.7912L29.5979 18.7912C29.4159 18.1976 28.9837 17.518 28.2645 17.0757C27.541 16.6307 26.5413 16.4346 25.2447 16.7879L25.2443 16.788C23.9534 17.1438 23.2811 17.7213 22.9389 18.414C22.6118 19.0761 22.5993 19.8227 22.5879 20.5034C22.5876 20.522 22.5873 20.5406 22.587 20.5591ZM22.587 20.5591C22.587 20.5591 22.587 20.559 22.587 20.559L22.7369 20.5618L22.587 20.5593C22.587 20.5592 22.587 20.5592 22.587 20.5591ZM26.104 24.1292L26.1019 24.1291C25.9325 24.1221 25.6666 24.0565 25.3708 23.9483C25.0843 23.8434 24.7828 23.7033 24.5345 23.5531C23.7045 22.7011 23.4212 21.6995 23.4183 20.8082C23.4153 19.9064 23.6995 19.13 23.9824 18.7487L23.9827 18.7482C24.1213 18.5597 24.3837 18.3623 24.7312 18.1841C25.0754 18.0077 25.4896 17.857 25.9166 17.755C26.3439 17.653 26.7788 17.6011 27.1647 17.6187C27.5528 17.6364 27.8758 17.7235 28.0953 17.8843C28.3137 18.0498 28.4941 18.3346 28.631 18.7059C28.7671 19.0754 28.855 19.5165 28.8973 19.9761C28.9824 20.8996 28.8814 21.8665 28.6486 22.4399C28.4213 22.9995 27.9254 23.4312 27.4021 23.7211C27.142 23.8652 26.8797 23.9716 26.6489 24.0398C26.4154 24.1089 26.2242 24.1359 26.104 24.1292Z" fill="#CFCFCF" stroke="#CFCFCF" stroke-width="0.3"/>
</g>
<defs>
<clipPath id="clip0">
<rect width="40" height="40" fill="white" transform="translate(0.752563)"/>
</clipPath>
</defs>
</svg>
