<svg width="41" height="40" viewBox="0 0 41 40" fill="none" xmlns="http://www.w3.org/2000/svg">
<g clip-path="url(#clip0)">
<path d="M39.7517 3.68991L39.6821 3.55704L39.682 3.55709L39.6815 3.55734L39.6796 3.55837L39.6716 3.56251L39.6401 3.57886C39.6123 3.59323 39.5711 3.6144 39.518 3.64148C39.4118 3.69563 39.2577 3.77339 39.0665 3.86763C38.684 4.05615 38.1536 4.31042 37.5617 4.57349C36.4015 5.08914 35.0236 5.63001 34.0587 5.78577C34.04 5.76811 34.0167 5.74654 33.9888 5.72152C33.9068 5.64797 33.7851 5.54454 33.6241 5.42273C33.302 5.17914 32.8222 4.86179 32.1876 4.56296C30.9175 3.96486 29.0295 3.44214 26.5503 3.73126C24.0389 4.02413 22.264 5.71244 21.0869 7.58935C19.9523 9.39843 19.3585 11.4044 19.1869 12.5747C19.1758 12.5749 19.164 12.575 19.1514 12.5751C19.0455 12.5761 18.8888 12.5751 18.6878 12.5673C18.2858 12.5516 17.7067 12.5083 17.0016 12.3981C15.5912 12.1776 13.679 11.6894 11.6728 10.6189C9.68237 9.55685 8.26603 7.76973 7.34515 6.23803C6.88546 5.47342 6.55111 4.77561 6.33182 4.26926C6.22221 4.01616 6.14144 3.8111 6.08819 3.66971C6.06158 3.59903 6.04185 3.54427 6.02884 3.5074L6.01436 3.46576L6.01087 3.45546L6.01005 3.45303L6.00988 3.4525L6.00985 3.45243L6.00984 3.4524L5.91744 3.17339L5.74572 3.41195L5.86746 3.49958L5.74567 3.41202L5.74557 3.41215L5.74526 3.41259L5.74415 3.41414L5.73998 3.41999L5.72416 3.44238C5.7104 3.46197 5.69036 3.49075 5.66492 3.52797C5.61405 3.60239 5.54155 3.71058 5.45449 3.84646C5.28044 4.11809 5.04774 4.50101 4.8131 4.94639C4.34678 5.83151 3.86099 6.98493 3.83136 8.00613L3.83136 8.00615C3.74599 10.9571 4.56173 13.0936 5.61542 14.5425L2.54194 13.0432L2.29339 12.9219L2.32731 13.1964L2.47617 13.178C2.32731 13.1964 2.32732 13.1965 2.32733 13.1966L2.32738 13.1969L2.32753 13.1981L2.32807 13.2024L2.33019 13.2182C2.33208 13.2319 2.33494 13.252 2.33892 13.2781C2.34687 13.3303 2.35926 13.4066 2.37722 13.504C2.41312 13.6989 2.47127 13.9787 2.56056 14.3204C2.73907 15.0037 3.04245 15.9364 3.54232 16.9352C4.46633 18.7814 6.06593 20.8603 8.79385 21.9966C8.66784 22.0015 8.52797 22.0066 8.3761 22.0117C7.6711 22.0355 6.70835 22.0592 5.67694 22.0592H5.50673L5.52813 22.2281L5.67694 22.2092C5.52813 22.2281 5.52815 22.2282 5.52817 22.2284L5.52822 22.2288L5.52835 22.2298L5.52874 22.2326L5.53008 22.2414C5.53124 22.2488 5.53297 22.259 5.53545 22.2719C5.54041 22.2978 5.54834 22.3348 5.56064 22.382C5.58524 22.4764 5.62726 22.6118 5.69777 22.782C5.83884 23.1227 6.0935 23.6018 6.54942 24.1707C7.43797 25.2794 9.08788 26.7252 12.1437 28.1525C10.0854 29.4759 7.34322 29.9394 5.06858 30.0641C3.89298 30.1286 2.84847 30.1023 2.09794 30.0598C1.72278 30.0386 1.42132 30.0134 1.21396 29.9935C1.11029 29.9835 1.03017 29.9749 0.97613 29.9688L0.914972 29.9617L0.899672 29.9599L0.895947 29.9594L0.895079 29.9593L0.894879 29.9592L0.445553 29.9016L0.771686 30.216L0.875793 30.108C0.771686 30.216 0.771756 30.2161 0.771846 30.2162L0.772125 30.2164L0.773039 30.2173L0.776288 30.2204L0.788474 30.2319C0.799123 30.2418 0.81482 30.2564 0.835548 30.2752C0.877003 30.3127 0.938587 30.3673 1.02016 30.4365C1.18331 30.5749 1.42647 30.7716 1.74855 31.0068C2.39269 31.4774 3.35276 32.1025 4.62016 32.7242C7.15536 33.9677 10.9197 35.1974 15.8427 35.1496C25.7132 35.0537 31.5819 27.8506 33.8442 24.6463C34.4208 23.8297 34.9497 22.6327 35.4184 21.307C35.8881 19.9787 36.3011 18.5106 36.6429 17.1448C36.9848 15.7786 37.2559 14.5129 37.4415 13.5888C37.5343 13.1267 37.6058 12.7499 37.6541 12.4885C37.6783 12.3577 37.6966 12.2559 37.7089 12.1866L37.7189 12.1301C37.7377 12.1123 37.7633 12.0878 37.795 12.0571C37.8669 11.9874 37.9703 11.8853 38.0965 11.7556C38.3488 11.4964 38.6931 11.1261 39.0611 10.6816C39.7946 9.79577 40.6335 8.60264 41.0187 7.39957L41.0875 7.18463L40.8626 7.20441L39.0116 7.36731C39.0377 7.32615 39.0661 7.28073 39.0961 7.23145C39.2472 6.98373 39.442 6.6369 39.6163 6.24136C39.7903 5.84648 39.9458 5.39852 40.015 4.94932C40.0841 4.50065 40.0687 4.04056 39.8891 3.62983L39.8247 3.48239L39.6821 3.55702L39.7517 3.68991ZM36.1893 11.4593L36.1085 11.5067L36.1156 11.6002L36.1156 11.6003L36.1157 11.6013L36.116 11.6054L36.1172 11.623C36.118 11.6351 36.119 11.6521 36.1201 11.6737C36.1205 11.6801 36.1208 11.6869 36.1212 11.6941C36.1243 11.7571 36.1282 11.8512 36.1308 11.9738C36.136 12.2191 36.1363 12.5787 36.1165 13.0336C36.0769 13.9434 35.9569 15.2338 35.635 16.7525C34.9912 19.79 33.5405 23.7374 30.3134 27.382C27.2658 30.8225 22.8129 32.7633 18.3359 33.3747C14.0425 33.961 9.7468 33.3221 6.66972 31.6317C9.35014 31.2824 11.2846 30.3848 12.5662 29.5522C13.2424 29.1129 13.7364 28.692 14.0623 28.3798C14.2252 28.2236 14.3462 28.0946 14.4269 28.004C14.4673 27.9587 14.4976 27.923 14.518 27.8983C14.5282 27.886 14.536 27.8764 14.5414 27.8697L14.5475 27.8619L14.5493 27.8597L14.5498 27.859L14.55 27.8588C14.55 27.8587 14.5501 27.8586 14.4314 27.7669L14.5501 27.8586L14.7241 27.6334L14.44 27.6172C11.9905 27.4771 10.2586 26.3245 9.13614 25.2031C8.5747 24.6423 8.16673 24.0901 7.89937 23.6784C7.79233 23.5136 7.70794 23.3716 7.64537 23.2607C8.5642 23.3756 9.47648 23.2183 10.1763 23.0247C10.5657 22.917 10.8925 22.7973 11.1222 22.7043C11.2371 22.6577 11.3278 22.6178 11.3902 22.5894C11.4214 22.5752 11.4456 22.5638 11.4621 22.556L11.481 22.5468L11.4861 22.5443L11.4875 22.5436L11.4879 22.5434L11.4881 22.5433C11.4881 22.5433 11.4882 22.5433 11.4211 22.4091L11.4882 22.5433L11.8401 22.3675L11.4605 22.2643L11.4605 22.2643L11.4605 22.2643L11.4604 22.2643L11.4597 22.2641L11.4559 22.263L11.4395 22.2583C11.4248 22.254 11.4025 22.2473 11.373 22.238C11.3141 22.2195 11.2266 22.1905 11.1143 22.1495C10.8895 22.0675 10.5653 21.9374 10.1709 21.746C9.3818 21.363 8.31232 20.7348 7.19523 19.7554C6.088 18.7846 5.44 17.6542 5.06875 16.7651C4.88322 16.3207 4.76722 15.9375 4.69772 15.6662C4.67948 15.595 4.66446 15.5316 4.65223 15.4768C5.25328 15.6493 6.04627 15.831 6.71713 15.975C7.10024 16.0573 7.44509 16.1276 7.69417 16.1774C7.81873 16.2023 7.91937 16.222 7.98891 16.2355L8.069 16.251L8.08988 16.2551L8.09523 16.2561L8.0966 16.2563L8.09695 16.2564L8.09704 16.2564L8.12514 16.1091L8.09708 16.2564L8.20931 15.9853L8.20951 15.9851L8.20945 15.985L8.20937 15.985L8.20844 15.9843L8.2041 15.9813L8.1858 15.9684C8.16947 15.9567 8.14504 15.939 8.11356 15.9153C8.05059 15.8678 7.95949 15.7966 7.84865 15.7024C7.62684 15.514 7.32666 15.2346 7.0148 14.8717C6.39016 14.1448 5.7249 13.0906 5.5397 11.7677C5.35161 10.4242 5.42186 9.02715 5.54024 7.96278C5.59935 7.43131 5.67027 6.98438 5.72636 6.67061C5.73474 6.62372 5.74279 6.57981 5.75042 6.53905C8.23585 10.3215 12.083 12.2099 15.3303 13.1531C16.9995 13.6379 18.5143 13.8743 19.6119 13.9895C20.1609 14.0471 20.6059 14.0744 20.9141 14.0874C21.0682 14.0938 21.1882 14.0967 21.2699 14.098C21.3108 14.0986 21.3421 14.0988 21.3633 14.0989L21.3875 14.0989L21.3939 14.0988L21.3956 14.0988L21.396 14.0988C21.3962 14.0988 21.3963 14.0988 21.3949 13.9488L21.3963 14.0988L21.5764 14.0972L21.5423 13.9205L21.5422 13.9205L21.5422 13.9204L21.542 13.9194L21.5411 13.9141L21.5372 13.8913C21.5339 13.8707 21.5291 13.8395 21.5238 13.7982C21.5131 13.7155 21.4999 13.5928 21.4907 13.4351C21.4722 13.1196 21.4695 12.6644 21.5333 12.1102C21.6608 11.0023 22.0541 9.49877 23.1196 7.92321C24.1708 6.36879 26.1742 5.32721 28.2351 5.10716C30.2943 4.8873 32.3743 5.49026 33.6004 7.17558L33.6554 7.25117L33.7475 7.2351L33.7217 7.08733L33.7476 7.23509L33.7477 7.23506L33.7483 7.23495L33.7505 7.23456L33.759 7.23306L33.7914 7.22717C33.8198 7.22196 33.8614 7.21417 33.9149 7.20381C34.0217 7.18309 34.1757 7.15208 34.3651 7.11077C34.7438 7.02817 35.2646 6.90423 35.8331 6.73888C36.7521 6.4716 37.8152 6.09079 38.5995 5.59128C38.4664 5.85222 38.282 6.18879 38.0497 6.55493C37.5245 7.38259 36.7629 8.34767 35.8053 8.93917L35.9116 9.21424L35.8841 9.06678L35.9117 9.21423L35.9118 9.21421L35.9123 9.21413L35.914 9.21381L35.9206 9.21257L35.9462 9.20772L36.0436 9.18897C36.1278 9.17261 36.2488 9.14873 36.3963 9.11858C36.6912 9.05832 37.0926 8.97294 37.5178 8.87257C37.9427 8.77227 38.3931 8.65661 38.7857 8.53566C38.9869 8.47367 39.1771 8.40908 39.3424 8.343C39.2406 8.53986 39.0852 8.80604 38.8602 9.11391C38.3651 9.79118 37.5323 10.6712 36.1893 11.4593Z" fill="#CFCFCF" stroke="#CFCFCF" stroke-width="0.3"/>
</g>
<defs>
<clipPath id="clip0">
<rect width="40" height="40" fill="white" transform="translate(0.876282)"/>
</clipPath>
</defs>
</svg>
