<svg width="40" height="40" viewBox="0 0 40 40" fill="none" xmlns="http://www.w3.org/2000/svg">
<path d="M25.7131 4.11829L25.6631 4.2597L25.7131 4.11828C23.0897 3.19079 19.9341 3.12324 16.9237 3.77088C13.9146 4.41824 11.0368 5.78311 8.9697 7.73646C7.74911 8.77124 5.4323 11.1699 4.0504 15.4083L4.05039 15.4083C2.92624 18.8583 3.31522 22.2648 4.1066 24.9574C4.89723 27.6475 6.09409 29.6405 6.60697 30.2718L6.72339 30.1772L6.60697 30.2718C7.61137 31.5079 13.0225 37.3876 21.305 36.691C29.5916 35.994 33.6126 29.7188 35.4576 26.1826C36.3948 24.3863 36.7017 21.9604 36.6439 19.6205C36.5861 17.2784 36.1623 15.0001 35.6192 13.4872C34.5339 10.4639 32.0521 6.36013 25.7131 4.11829ZM32.9714 27.8012L32.9713 27.8013C32.2256 29.0819 30.6508 30.7549 28.7888 32.1762C26.9256 33.5984 24.7993 34.7498 22.9581 35.0128C21.1008 35.2782 18.2273 35.184 15.3715 34.3748C12.5156 33.5656 9.69555 32.0469 7.92033 29.4785C4.34707 24.3087 4.42463 18.7615 5.63884 15.1188C6.61739 12.1832 8.33951 9.98011 9.68608 8.59442C10.7937 7.65491 13.2099 5.96175 17.1102 5.01896C20.2557 4.26101 23.234 4.77183 25.6293 5.67485C28.0269 6.57869 29.8293 7.87126 30.6178 8.65978C31.5745 9.61645 32.7546 11.2516 33.7049 13.0789C34.6563 14.9081 35.3671 16.9103 35.4047 18.602C35.4807 22.0221 34.5691 25.0622 32.9714 27.8012Z" fill="#CFCFCF" stroke="#CFCFCF" stroke-width="0.3"/>
<path d="M16.2309 21.2817L16.2331 21.4316L16.2329 21.4317L16.2322 21.4317L16.2294 21.4317L16.2183 21.4319L16.1749 21.4325L16.0097 21.4349L15.416 21.4436C14.9224 21.4508 14.2586 21.4604 13.578 21.47C12.2179 21.4891 10.7881 21.5083 10.5183 21.5083C10.3632 21.5083 10.2223 21.4697 10.1303 21.3627C10.0386 21.2561 10.0268 21.1182 10.0438 20.993L16.2309 21.2817ZM16.2309 21.2817L16.3471 21.3766L16.3471 21.3766L16.3471 21.3766L16.3472 21.3765L16.3474 21.3762L16.3482 21.3752L16.351 21.3718L16.3611 21.3591C16.3698 21.3481 16.3823 21.3321 16.3982 21.3112C16.4296 21.27 16.4741 21.21 16.528 21.1331L16.5794 21.0669L16.5795 21.067L16.5836 21.0613C16.9687 20.5144 17.7257 19.306 17.8371 18.0753M16.2309 21.2817L15.1969 13.2861M16.2309 21.2817L16.2332 21.4316L16.3029 21.4306L16.347 21.3766L16.2309 21.2817ZM17.8371 18.0753C17.8371 18.0756 17.8371 18.0758 17.8371 18.076L17.6878 18.0611L17.8372 18.0746C17.8372 18.0748 17.8371 18.0751 17.8371 18.0753ZM17.8371 18.0753C17.8619 17.827 17.8377 17.4726 17.783 17.0727C17.7278 16.6694 17.6402 16.2096 17.533 15.7461C17.3195 14.8228 17.0249 13.8696 16.7485 13.3166C16.6115 13.0428 16.4804 12.8523 16.3445 12.7398C16.1991 12.6194 16.0429 12.5854 15.8863 12.6376C15.7474 12.6839 15.6274 12.7927 15.5234 12.9039C15.4552 12.977 15.3829 13.0639 15.3107 13.1507C15.2725 13.1965 15.2344 13.2423 15.1969 13.2861M15.1969 13.2861L15.3108 13.3837L15.1969 13.2861C15.0762 13.427 14.7404 13.8897 14.3054 14.5035C13.8677 15.1211 13.3234 15.9003 12.7817 16.6817C11.6998 18.2423 10.6236 19.8181 10.4295 20.1287L15.1969 13.2861ZM11.2972 20.5953L11.299 20.5918L15.8163 13.6308C15.8315 13.6695 15.8481 13.7119 15.8658 13.7577C15.961 14.0042 16.0896 14.3496 16.223 14.7448C16.4907 15.5385 16.7734 16.5216 16.8484 17.3086L16.8484 17.3091C16.9215 18.0512 16.6851 18.9077 16.4113 19.6082C16.1879 20.18 15.9454 20.6338 15.8447 20.8158L11.6326 20.7483L11.6326 20.7483H11.6302C11.469 20.7483 11.379 20.7255 11.3317 20.7029C11.2908 20.6835 11.286 20.6669 11.2851 20.6637L11.285 20.6635C11.2823 20.6544 11.2823 20.6389 11.2886 20.6179C11.2914 20.6085 11.2948 20.6005 11.2972 20.5953ZM11.2997 20.5903L11.2997 20.5904L11.2997 20.5903Z" fill="#CFCFCF" stroke="#CFCFCF" stroke-width="0.3"/>
<path d="M31.4395 21.5131L31.4699 21.5169L31.4513 21.6657C31.4699 21.5169 31.4699 21.5169 31.47 21.5169L31.4702 21.5169L31.4705 21.517L31.4713 21.5171L31.4731 21.5173L31.4782 21.5181C31.4821 21.5187 31.4872 21.5196 31.4934 21.5208C31.5056 21.5232 31.522 21.5269 31.5412 21.5325C31.5792 21.5436 31.631 21.5629 31.6841 21.5961C31.7955 21.6657 31.908 21.7958 31.908 22.0108C31.908 22.1677 31.8982 22.4487 31.8887 22.6877C31.8839 22.8079 31.8791 22.9183 31.8755 22.9988L31.8711 23.0944L31.8708 23.1021C31.875 23.1165 31.8797 23.1348 31.8838 23.1563C31.8932 23.2056 31.9002 23.2762 31.8866 23.3544C31.8727 23.4343 31.8372 23.5219 31.7629 23.5989C31.689 23.6753 31.5854 23.7326 31.4493 23.7666L31.4129 23.6211L31.4493 23.7666C31.2441 23.8179 30.8787 24.0073 30.5271 24.2192C30.3546 24.3232 30.1908 24.4293 30.0589 24.5207C29.9235 24.6146 29.831 24.6867 29.7937 24.724C29.7814 24.7363 29.7446 24.7841 29.6805 24.8768C29.6199 24.9643 29.5424 25.0806 29.4518 25.2185C29.3625 25.3542 29.263 25.5072 29.1555 25.6724C29.0423 25.8464 28.9202 26.0339 28.7923 26.229C28.301 26.9778 27.7382 27.8133 27.3838 28.2071C26.66 29.0113 25.699 29.2888 24.9885 29.3677L24.9719 29.2186L24.9885 29.3677C24.8056 29.388 24.0703 29.3974 23.0878 29.401C22.0988 29.4046 20.8452 29.4022 19.6134 29.3974C18.3816 29.3926 17.1713 29.3854 16.2691 29.3794C15.8179 29.3764 15.4438 29.3737 15.1824 29.3718L14.8794 29.3695L14.7997 29.3689L14.7793 29.3687L14.7742 29.3687L14.7729 29.3686L14.7725 29.3686C14.7725 29.3686 14.7724 29.3686 14.7736 29.2186M31.4395 21.5131L21.7514 10.2406M31.4395 21.5131L31.4101 21.5215L26.3249 22.9744C26.3232 22.9746 26.3215 22.9748 26.3197 22.9751C26.3048 22.9771 26.286 22.9805 26.263 22.9866C26.2172 22.9986 26.1554 23.0208 26.0771 23.0613C25.9211 23.142 25.698 23.2963 25.4026 23.5917C25.1228 23.8715 24.7558 24.1635 24.4557 24.3875C24.3062 24.499 24.1746 24.5927 24.0803 24.6585C24.0332 24.6914 23.9955 24.7172 23.9697 24.7348L23.9661 24.7372L23.9307 24.738L23.7186 24.7423C23.5419 24.7459 23.3036 24.7507 23.0568 24.7555C22.5621 24.7651 22.0371 24.7746 21.9048 24.7746C21.8743 24.7746 21.8415 24.7582 21.8129 24.6683C21.8002 24.6284 21.7933 24.5864 21.7897 24.553C21.788 24.5366 21.7871 24.5232 21.7867 24.5142L21.7866 24.5099L21.8923 23.6177H23.5917H23.6292L23.6623 23.6001L23.5917 23.4677C23.6623 23.6001 23.6623 23.6001 23.6624 23.6L23.6626 23.5999L23.663 23.5997L23.6641 23.5991L23.6676 23.5972L23.6794 23.5905C23.6894 23.5848 23.7036 23.5765 23.7216 23.5654C23.7577 23.5432 23.8091 23.5099 23.8734 23.4641C24.0018 23.3726 24.1814 23.2313 24.3907 23.0294C24.8096 22.6252 25.3472 21.979 25.8345 21.0044C26.3104 20.0526 26.6412 19.3758 26.7216 18.683C26.803 17.9805 26.6265 17.2789 26.1423 16.2716C25.6494 15.2465 24.6043 14.1563 23.6974 13.331C23.2416 12.9161 22.816 12.5641 22.5044 12.3158C22.3486 12.1916 22.2212 12.0933 22.1325 12.0259C22.099 12.0004 22.071 11.9793 22.0492 11.963M31.4395 21.5131L21.9048 12.0426M14.7736 29.2186C14.7382 29.3644 14.7381 29.3644 14.738 29.3644L14.7377 29.3643L14.7368 29.364L14.7333 29.3632L14.7208 29.36C14.71 29.3572 14.6942 29.3531 14.6738 29.3475C14.633 29.3364 14.5738 29.3196 14.4987 29.2965C14.3486 29.2504 14.1348 29.1792 13.8783 29.0785C13.3658 28.8773 12.6804 28.5572 11.9904 28.0818C10.6097 27.1304 9.20013 25.548 9.14112 23.0495L9.14035 23.0169L9.15321 22.9869L9.29108 23.046L9.15324 22.9868L9.15328 22.9867L9.15337 22.9865L9.15363 22.9859L9.15439 22.9842L9.15694 22.9785L9.16603 22.9588C9.17383 22.9424 9.18513 22.9195 9.19964 22.8924C9.2284 22.8388 9.27106 22.7666 9.32554 22.6957C9.37914 22.6261 9.44975 22.5504 9.53635 22.4975C9.62528 22.4431 9.73839 22.4089 9.8642 22.4404L9.86422 22.4404C9.86419 22.4404 9.8642 22.4404 9.86424 22.4404C9.8645 22.4404 9.86636 22.4409 9.87033 22.4415C9.87465 22.4423 9.88042 22.4431 9.88783 22.4441C9.90272 22.4459 9.92215 22.4479 9.9463 22.4499C9.99459 22.4539 10.0581 22.4577 10.1354 22.4614C10.2898 22.4686 10.4948 22.4749 10.7334 22.4803C11.2103 22.491 11.8181 22.4982 12.4169 22.503C13.0156 22.5078 13.6048 22.5102 14.0444 22.5114C14.2641 22.512 14.4465 22.5123 14.5739 22.5124L14.7215 22.5126L14.7603 22.5126L14.7703 22.5126L14.7728 22.5126H14.7734H14.7736L14.7736 22.6626M14.7736 29.2186L14.7724 29.3686L14.7551 29.3685L14.7382 29.3644L14.7736 29.2186ZM14.7736 22.6626C14.8177 22.5192 14.8178 22.5192 14.8178 22.5193L14.818 22.5193L14.8182 22.5194L14.8189 22.5196L14.8208 22.5202L14.8267 22.5221C14.8315 22.5237 14.8381 22.526 14.8462 22.5289C14.8624 22.5348 14.8848 22.5434 14.9114 22.555C14.9642 22.5781 15.0357 22.6137 15.1082 22.6639C15.2491 22.7614 15.422 22.9349 15.422 23.1993C15.422 23.5597 15.5685 24.2238 16.1183 24.5674C16.175 24.6028 16.2666 24.6378 16.3938 24.6688C16.5189 24.6994 16.6689 24.7239 16.8361 24.7433C17.1702 24.782 17.5622 24.7986 17.9385 24.8034C18.3142 24.8082 18.6713 24.801 18.9347 24.7927C19.0523 24.789 19.1511 24.785 19.2244 24.7818V23.4615C19.2156 23.4561 19.205 23.4501 19.1923 23.4437C19.1261 23.4106 19.0015 23.3667 18.7868 23.3488C18.5653 23.3304 18.1224 23.3301 17.7276 23.335C17.5318 23.3373 17.3502 23.3409 17.2176 23.3439C17.1512 23.3454 17.0972 23.3468 17.0598 23.3477L17.0166 23.3489L17.0054 23.3492L17.0025 23.3493L17.0018 23.3493L17.0017 23.3493L17.0016 23.3493L16.9945 23.3495L16.9873 23.349L16.9973 23.1993C16.9873 23.349 16.9873 23.349 16.9872 23.349L16.987 23.349L16.9865 23.349L16.9855 23.3489L16.9828 23.3487L16.975 23.3479C16.9688 23.3472 16.9604 23.3462 16.9504 23.3447C16.9304 23.3416 16.9032 23.3363 16.872 23.3273C16.8117 23.31 16.7264 23.2759 16.6544 23.2075C16.578 23.1349 16.5238 23.0303 16.5238 22.892C16.5238 22.7601 16.5731 22.6087 16.6763 22.4332L16.6826 22.4226L16.683 22.4229L16.683 22.4229L16.6832 22.4226L16.6841 22.4213L16.6879 22.4158L16.7034 22.3934C16.717 22.3735 16.7372 22.3437 16.7629 22.3049C16.8144 22.2272 16.8882 22.1134 16.9768 21.9694C17.154 21.6813 17.39 21.2734 17.6246 20.7946C18.0962 19.8323 18.5528 18.603 18.5342 17.4892C18.5155 16.3649 18.1107 14.937 17.704 13.7792C17.5015 13.2027 17.3002 12.6974 17.1494 12.3364C17.0741 12.1559 17.0114 12.0116 16.9677 11.9125C16.9458 11.863 16.9287 11.8248 16.917 11.799L16.9038 11.7699L16.9037 11.7696L16.9027 11.768L16.884 11.7382C16.8684 11.7128 16.8466 11.6767 16.8219 11.6332C16.773 11.5471 16.7107 11.4292 16.6617 11.308C16.6149 11.1922 16.571 11.0518 16.5786 10.9281C16.5826 10.8634 16.6015 10.7894 16.6556 10.7284C16.7114 10.6654 16.7878 10.6353 16.8687 10.628L16.8687 10.628C16.9956 10.6164 17.2179 10.6417 17.4603 10.6788C17.7098 10.7171 18.001 10.7715 18.2775 10.8268C18.5543 10.8821 18.8177 10.9387 19.0118 10.9813C19.0644 10.9929 19.1119 11.0034 19.1533 11.0127L19.1861 9.92936L19.1869 9.90223L19.1972 9.87711L19.336 9.9339C19.1972 9.87711 19.1972 9.87704 19.1972 9.87697L19.1973 9.87682L19.1975 9.87646L19.1979 9.8755L19.199 9.87268L19.203 9.86353C19.2064 9.85594 19.2112 9.84541 19.2175 9.8324C19.2302 9.8064 19.2488 9.7703 19.2739 9.72777C19.3238 9.64309 19.4002 9.53083 19.5066 9.4218C19.7209 9.20214 20.0627 8.9911 20.5448 9.05683C21.464 9.18215 21.8535 9.89447 21.8999 10.2194M14.7736 22.6626V22.5126H14.7962L14.8177 22.5192L14.7736 22.6626ZM21.8999 10.2194L21.7514 10.2406M21.8999 10.2194C21.8999 10.2194 21.8999 10.2194 21.8999 10.2194L21.7514 10.2406M21.8999 10.2194C21.9199 10.3595 21.9586 10.8162 21.992 11.2302C22.0088 11.4389 22.0244 11.6392 22.0357 11.7872L22.0492 11.963M21.7514 10.2406C21.7897 10.509 21.9048 12.0426 21.9048 12.0426M22.0492 11.963C22.0421 11.9577 22.0357 11.9529 22.0299 11.9486L22.0029 11.9285L21.9959 11.9234L21.994 11.922L21.9936 11.9216L21.9934 11.9215L21.9048 12.0426M22.0492 11.963L22.0493 11.9648L22.053 12.014L22.054 12.0269L22.0543 12.0302L22.0543 12.031L22.0543 12.0313L22.0543 12.0313L21.9048 12.0426M17.84 22.5294C17.8457 22.5201 17.8518 22.5103 17.8583 22.4998C17.9127 22.4115 17.9909 22.2782 18.0881 22.0958C18.2827 21.731 18.5535 21.1697 18.8623 20.3784C19.4908 18.7679 19.4871 16.7761 18.8268 14.7564C18.4987 13.7526 18.1321 12.8942 17.8684 12.2805L17.851 12.24C17.7265 11.9504 17.6284 11.7222 17.5689 11.5596C17.5567 11.5264 17.5466 11.4973 17.5385 11.472C17.6054 11.4833 17.6903 11.501 17.7891 11.5238C18.0194 11.5769 18.3139 11.6553 18.6056 11.7366C18.8969 11.8178 19.1836 11.9014 19.3976 11.9647C19.5046 11.9964 19.5934 12.023 19.6553 12.0417L19.7271 12.0634L19.7459 12.0691L19.7507 12.0705L19.7519 12.0709L19.7522 12.071L19.7523 12.071L19.7961 11.9276L19.7523 12.071L19.9461 12.1301V11.9276V11.9275V11.9274V11.9273V11.9272V11.9271V11.9269V11.9267V11.9265V11.9262V11.926V11.9257V11.9254V11.925V11.9246V11.9242V11.9238V11.9234V11.9229V11.9224V11.9219V11.9213V11.9207V11.9201V11.9195V11.9189V11.9182V11.9175V11.9168V11.916V11.9153V11.9145V11.9137V11.9128V11.912V11.9111V11.9102V11.9092V11.9083V11.9073V11.9063V11.9053V11.9042V11.9031V11.902V11.9009V11.8998V11.8986V11.8974V11.8962V11.895V11.8937V11.8924V11.8911V11.8898V11.8885V11.8871V11.8857V11.8843V11.8829V11.8814V11.8799V11.8784V11.8769V11.8754V11.8738V11.8722V11.8706V11.869V11.8674V11.8657V11.864V11.8623V11.8606V11.8588V11.857V11.8552V11.8534V11.8516V11.8497V11.8479V11.846V11.8441V11.8421V11.8402V11.8382V11.8362V11.8342V11.8321V11.8301V11.828V11.8259V11.8238V11.8217V11.8195V11.8174V11.8152V11.813V11.8107V11.8085V11.8062V11.8039V11.8016V11.7993V11.797V11.7946V11.7922V11.7899V11.7874V11.785V11.7826V11.7801V11.7776V11.7751V11.7726V11.77V11.7675V11.7649V11.7623V11.7597V11.7571V11.7545V11.7518V11.7491V11.7464V11.7437V11.741V11.7382V11.7355V11.7327V11.7299V11.7271V11.7243V11.7214V11.7186V11.7157V11.7128V11.7099V11.707V11.704V11.7011V11.6981V11.6951V11.6921V11.6891V11.6861V11.683V11.68V11.6769V11.6738V11.6707V11.6676V11.6644V11.6613V11.6581V11.6549V11.6517V11.6485V11.6453V11.6421V11.6388V11.6355V11.6323V11.629V11.6256V11.6223V11.619V11.6156V11.6123V11.6089V11.6055V11.6021V11.5987V11.5952V11.5918V11.5883V11.5849V11.5814V11.5779V11.5744V11.5708V11.5673V11.5638V11.5602V11.5566V11.553V11.5494V11.5458V11.5422V11.5386V11.5349V11.5313V11.5276V11.5239V11.5202V11.5165V11.5128V11.5091V11.5053V11.5016V11.4978V11.494V11.4903V11.4865V11.4827V11.4788V11.475V11.4712V11.4673V11.4635V11.4596V11.4557V11.4518V11.4479V11.444V11.4401V11.4362V11.4322V11.4283V11.4243V11.4203V11.4163V11.4124V11.4084V11.4043V11.4003V11.3963V11.3923V11.3882V11.3842V11.3801V11.376V11.3719V11.3678V11.3637V11.3596V11.3555V11.3514V11.3473V11.3431V11.339V11.3348V11.3306V11.3265V11.3223V11.3181V11.3139V11.3097V11.3055V11.3013V11.297V11.2928V11.2885V11.2843V11.28V11.2758V11.2715V11.2672V11.2629V11.2586V11.2543V11.25V11.2457V11.2414V11.2371V11.2328V11.2284V11.2241V11.2197V11.2154V11.211V11.2066V11.2023V11.1979V11.1935V11.1891V11.1847V11.1803V11.1759V11.1715V11.1671V11.1626V11.1582V11.1538V11.1494V11.1449V11.1405V11.136V11.1316V11.1271V11.1226V11.1182V11.1137V11.1092V11.1047V11.1002V11.0957V11.0912V11.0867V11.0822V11.0777V11.0732V11.0687V11.0642V11.0597V11.0552V11.0506V11.0461V11.0416V11.037V11.0325V11.028V11.0234V11.0189V11.0143V11.0098V11.0052V11.0006V10.9961V10.9915V10.987V10.9824V10.9778V10.9733V10.9687V10.9641V10.9595V10.955V10.9504V10.9458V10.9412V10.9366V10.932V10.9275V10.9229V10.9183V10.9137V10.9091V10.9045V10.8999V10.8953V10.8907V10.8861V10.8816V10.877V10.8724V10.8678V10.8632V10.8586V10.854V10.8494V10.8448V10.8402V10.8356V10.831V10.8264V10.8218V10.8172V10.8126V10.8081V10.8035V10.7989V10.7943V10.7897V10.7851V10.7805V10.7759V10.7714V10.7668V10.7622V10.7576V10.753V10.7485V10.7439V10.7393V10.7348V10.7302V10.7256V10.7211V10.7165V10.7119V10.7074V10.7028V10.6983V10.6937V10.6892V10.6847V10.6801V10.6756V10.671V10.6665V10.662V10.6575V10.6529V10.6484V10.6439V10.6394V10.6349V10.6304V10.6259V10.6214V10.6169V10.6124V10.6079V10.6035V10.599V10.5945V10.59V10.5856V10.5811V10.5767V10.5722V10.5678V10.5633V10.5589V10.5545V10.5501V10.5456V10.5412V10.5368V10.5324V10.528V10.5236V10.5192V10.5149V10.5105V10.5061V10.5018V10.4974V10.493V10.4887V10.4844V10.48V10.4757V10.4714V10.4671V10.4628V10.4585V10.4542V10.4499V10.4456V10.4413V10.4371V10.4328V10.4286V10.4243V10.4201V10.4158V10.4116V10.4074V10.4032V10.399V10.3948V10.3906V10.3864V10.3823V10.3781V10.374V10.3698V10.3657V10.3616V10.3574V10.3533V10.3492V10.3451V10.3411V10.337V10.3329V10.3289V10.3248V10.3208V10.3167V10.3127V10.3087V10.3047V10.3007V10.2967V10.2928V10.2888V10.2848V10.2809V10.277V10.273V10.2691V10.2652V10.2613V10.2574V10.2536V10.2497V10.2459V10.242V10.2382V10.2344V10.2306V10.2268V10.223V10.2192V10.2154V10.2117V10.2079V10.2042V10.2005V10.1968V10.1931V10.1894V10.1857V10.1821V10.1784V10.1748V10.1712V10.1676V10.164C19.9461 9.91865 20.0625 9.7893 20.2062 9.7262C20.3623 9.65769 20.5579 9.66558 20.6936 9.72592C20.9639 9.84603 21.1797 10.2351 21.1797 10.7007C21.1797 10.955 21.1991 11.3331 21.2183 11.6444C21.2279 11.8008 21.2375 11.9414 21.2447 12.043L21.2534 12.1632L21.2559 12.1959L21.2565 12.2045L21.2567 12.2067L21.2567 12.2072L21.2568 12.2074L21.2568 12.2074L21.4063 12.196L21.2568 12.2075L21.263 12.2892L21.3352 12.328L21.8212 12.5897C22.9206 13.4822 24.0249 14.6267 24.7736 15.7991C25.5289 16.9819 25.9009 18.1589 25.5956 19.1287C25.2795 20.1329 24.6162 21.0048 24.0243 21.6297C23.7294 21.9412 23.4544 22.189 23.2535 22.3587C23.1531 22.4435 23.0713 22.5087 23.0149 22.5525C22.9959 22.5672 22.9799 22.5795 22.9669 22.5893H21.4447H21.2705L21.2963 22.7615L21.2983 22.7746L21.2947 22.888L21.2947 22.888L21.2947 22.8882L21.2947 22.8888L21.2946 22.8914L21.2943 22.9017L21.293 22.9417C21.2918 22.9766 21.29 23.0274 21.2876 23.0907C21.2828 23.2173 21.2756 23.3941 21.2661 23.5948C21.2469 23.9969 21.2183 24.4921 21.1804 24.8714C21.1605 25.0703 21.166 25.2178 21.1941 25.3255C21.2228 25.4355 21.282 25.5259 21.3824 25.5635C21.474 25.5978 21.559 25.5718 21.6038 25.5528C21.617 25.5472 21.629 25.5412 21.6395 25.5356L21.6737 25.5362C21.7242 25.5372 21.7969 25.5386 21.886 25.5401C22.0642 25.5431 22.3078 25.5467 22.5695 25.5491C23.0901 25.5539 23.6906 25.554 23.985 25.5344C24.0865 25.5276 24.1922 25.488 24.2931 25.4361C24.3959 25.3832 24.5048 25.3118 24.6149 25.2303C24.8351 25.0671 25.0716 24.8548 25.2912 24.6449C25.4885 24.4563 25.675 24.2667 25.8263 24.113C25.8438 24.0953 25.8608 24.078 25.8773 24.0612C25.9575 23.9798 26.0248 23.912 26.0766 23.8622C26.1026 23.8372 26.1232 23.8182 26.1388 23.8049C26.1469 23.7979 26.1519 23.794 26.1543 23.7922C26.1591 23.7903 26.1693 23.7864 26.1871 23.7802C26.2113 23.7717 26.2438 23.7611 26.2844 23.7482C26.3654 23.7226 26.4749 23.6893 26.6071 23.6498C26.7572 23.605 26.9349 23.5526 27.1316 23.4946C27.282 23.4503 27.4435 23.4027 27.612 23.3528C28.3879 23.1229 29.3117 22.8439 29.9676 22.6123C30.6162 22.3834 30.948 22.3115 31.1123 22.2942C31.1293 22.2924 31.144 22.2913 31.1568 22.2906C31.1588 22.3242 31.1609 22.3631 31.1624 22.4046C31.1672 22.5353 31.1661 22.672 31.1508 22.7482C31.1417 22.7937 31.1356 22.8126 31.1266 22.8288C31.1179 22.8444 31.1006 22.8677 31.0538 22.9064C30.9544 22.9885 30.7653 23.1063 30.3773 23.3391C29.9724 23.5821 29.6334 23.9136 29.2442 24.405C28.8759 24.8699 28.4562 25.4865 27.8906 26.3176C27.8608 26.3613 27.8306 26.4056 27.8001 26.4505C27.2038 27.3262 26.4196 27.8966 25.7813 28.2486C25.4625 28.4244 25.1815 28.545 24.9808 28.6214C24.8805 28.6596 24.8004 28.6867 24.7459 28.7041C24.7186 28.7129 24.6978 28.7192 24.684 28.7232L24.6829 28.7235L15.6561 28.6852L15.6561 28.6849L15.6469 28.6855L15.6468 28.6855L15.6467 28.6855L15.6466 28.6855L15.6464 28.6855L15.6434 28.6857L15.6292 28.6861C15.6162 28.6864 15.5961 28.6867 15.5695 28.6865C15.5162 28.6859 15.4368 28.6831 15.3353 28.6739C15.1323 28.6555 14.8414 28.6116 14.495 28.5093C13.803 28.3049 12.8879 27.8672 12.0075 26.9306C11.1219 25.9884 10.7132 25.1375 10.5429 24.5114C10.4576 24.1978 10.4322 23.9414 10.4361 23.7584C10.438 23.6666 10.4472 23.5959 10.4586 23.547C10.4625 23.5304 10.4662 23.5182 10.4692 23.5095C10.4703 23.5092 10.4715 23.5089 10.4727 23.5086C10.5042 23.5011 10.5507 23.4928 10.6123 23.4843C10.7347 23.4673 10.9043 23.451 11.1072 23.4358C11.5122 23.4055 12.0407 23.3804 12.5691 23.3636C13.0974 23.3469 13.6237 23.3386 14.0243 23.3416C14.2249 23.343 14.3921 23.3474 14.5116 23.3547C14.5464 23.3568 14.5762 23.3592 14.6009 23.3616C14.5987 23.4003 14.5988 23.447 14.6017 23.504C14.6074 23.6192 14.625 23.7855 14.6639 24.0282C14.7513 24.5746 15.2032 24.9698 15.594 25.2188C15.7937 25.3462 15.9876 25.4418 16.1313 25.5056C16.2033 25.5376 16.2631 25.5618 16.3053 25.578C16.3264 25.5862 16.343 25.5924 16.3547 25.5966L16.3682 25.6014L16.372 25.6027L16.3731 25.6031L16.3734 25.6032L16.3736 25.6033L16.4222 25.4614L16.3737 25.6033L16.4002 25.6124L16.4283 25.6113L16.4284 25.6113L16.4287 25.6113L16.4301 25.6112L16.4353 25.611L16.4558 25.6102L16.5344 25.6071C16.6024 25.6045 16.7002 25.6009 16.8193 25.5967C17.0574 25.5883 17.3803 25.5778 17.72 25.5692C18.406 25.5518 19.1404 25.5429 19.3956 25.5721L19.3961 25.5721C19.5306 25.5871 19.6399 25.54 19.7144 25.4526C19.7811 25.3743 19.8102 25.275 19.8241 25.1945C19.8384 25.1113 19.8396 25.0294 19.8376 24.9705C19.8366 24.9406 19.8347 24.9154 19.8331 24.8974L19.8313 24.8796L19.8315 24.8722L19.8327 24.8218L19.837 24.64C19.8406 24.4884 19.8454 24.2835 19.8502 24.0701C19.8598 23.6447 19.8694 23.1823 19.8694 23.046C19.8694 22.8811 19.8216 22.7637 19.7641 22.6846C19.7359 22.6459 19.7069 22.6183 19.6831 22.5995C19.6713 22.5901 19.6607 22.5829 19.6521 22.5776C19.6479 22.5749 19.6441 22.5727 19.6409 22.5709L19.6366 22.5685L19.6347 22.5676L19.6339 22.5672L19.6335 22.567L19.6333 22.5669C19.6332 22.5668 19.6331 22.5668 19.5661 22.7009L19.6331 22.5668L19.6015 22.5509H19.5661H19.566H19.566H19.5659H19.5657H19.5656H19.5654H19.5652H19.565H19.5648H19.5645H19.5642H19.5639H19.5635H19.5632H19.5628H19.5623H19.5619H19.5614H19.5609H19.5604H19.5599H19.5593H19.5587H19.5581H19.5574H19.5568H19.5561H19.5553H19.5546H19.5538H19.5531H19.5522H19.5514H19.5506H19.5497H19.5488H19.5478H19.5469H19.5459H19.5449H19.5439H19.5429H19.5418H19.5407H19.5396H19.5385H19.5373H19.5361H19.5349H19.5337H19.5325H19.5312H19.5299H19.5286H19.5273H19.5259H19.5246H19.5232H19.5218H19.5203H19.5189H19.5174H19.5159H19.5144H19.5128H19.5113H19.5097H19.5081H19.5065H19.5048H19.5032H19.5015H19.4998H19.4981H19.4963H19.4945H19.4928H19.491H19.4891H19.4873H19.4854H19.4836H19.4817H19.4797H19.4778H19.4758H19.4739H19.4719H19.4699H19.4678H19.4658H19.4637H19.4616H19.4595H19.4574H19.4553H19.4531H19.4509H19.4487H19.4465H19.4443H19.442H19.4398H19.4375H19.4352H19.4329H19.4305H19.4282H19.4258H19.4234H19.421H19.4186H19.4162H19.4137H19.4112H19.4088H19.4063H19.4037H19.4012H19.3987H19.3961H19.3935H19.3909H19.3883H19.3857H19.383H19.3804H19.3777H19.375H19.3723H19.3696H19.3668H19.3641H19.3613H19.3585H19.3557H19.3529H19.3501H19.3473H19.3444H19.3415H19.3387H19.3358H19.3329H19.3299H19.327H19.324H19.3211H19.3181H19.3151H19.3121H19.3091H19.3061H19.303H19.3H19.2969H19.2938H19.2907H19.2876H19.2845H19.2813H19.2782H19.275H19.2719H19.2687H19.2655H19.2623H19.2591H19.2558H19.2526H19.2493H19.2461H19.2428H19.2395H19.2362H19.2329H19.2296H19.2262H19.2229H19.2195H19.2162H19.2128H19.2094H19.206H19.2026H19.1992H19.1957H19.1923H19.1889H19.1854H19.1819H19.1784H19.175H19.1715H19.1679H19.1644H19.1609H19.1574H19.1538H19.1503H19.1467H19.1431H19.1395H19.1359H19.1323H19.1287H19.1251H19.1215H19.1179H19.1142H19.1106H19.1069H19.1032H19.0996H19.0959H19.0922H19.0885H19.0848H19.0811H19.0773H19.0736H19.0699H19.0661H19.0624H19.0586H19.0549H19.0511H19.0473H19.0435H19.0397H19.0359H19.0321H19.0283H19.0245H19.0207H19.0169H19.013H19.0092H19.0053H19.0015H18.9976H18.9938H18.9899H18.986H18.9821H18.9782H18.9743H18.9705H18.9666H18.9626H18.9587H18.9548H18.9509H18.947H18.943H18.9391H18.9352H18.9312H18.9273H18.9233H18.9194H18.9154H18.9115H18.9075H18.9035H18.8996H18.8956H18.8916H18.8876H18.8836H18.8796H18.8756H18.8717H18.8677H18.8637H18.8597H18.8556H18.8516H18.8476H18.8436H18.8396H18.8356H18.8316H18.8275H18.8235H18.8195H18.8155H18.8114H18.8074H18.8034H18.7993H18.7953H18.7913H18.7872H18.7832H18.7792H18.7751H18.7711H18.767H18.763H18.759H18.7549H18.7509H18.7468H18.7428H18.7387H18.7347H18.7306H18.7266H18.7226H18.7185H18.7145H18.7104H18.7064H18.7024H18.6983H18.6943H18.6902H18.6862H18.6822H18.6781H18.6741H18.6701H18.666H18.662H18.658H18.6539H18.6499H18.6459H18.6419H18.6379H18.6338H18.6298H18.6258H18.6218H18.6178H18.6138H18.6098H18.6058H18.6018H18.5978H18.5938H18.5898H18.5858H18.5819H18.5779H18.5739H18.5699H18.566H18.562H18.5581H18.5541H18.5501H18.5462H18.5423H18.5383H18.5344H18.5304H18.5265H18.5226H18.5187H18.5148H18.5109H18.507H18.5031H18.4992H18.4953H18.4914H18.4875H18.4836H18.4798H18.4759H18.4721H18.4682H18.4644H18.4605H18.4567H18.4529H18.4491H18.4452H18.4414H18.4376H18.4338H18.4301H18.4263H18.4225H18.4187H18.415H18.4112H18.4075H18.4037H18.4H18.3963H18.3926H18.3888H18.3851H18.3815H18.3778H18.3741H18.3704H18.3668H18.3631H18.3595H18.3558H18.3522H18.3486H18.345H18.3413H18.3378H18.3342H18.3306H18.327H18.3235H18.3199H18.3164H18.3128H18.3093H18.3058H18.3023H18.2988H18.2953H18.2918H18.2884H18.2849H18.2815H18.2781H18.2746H18.2712H18.2678H18.2644H18.261H18.2577H18.2543H18.251H18.2476H18.2443H18.241H18.2377H18.2344H18.2311H18.2278H18.2246H18.2213H18.2181H18.2149H18.2116H18.2084H18.2053H18.2021H18.1989H18.1958H18.1926H18.1895H18.1864H18.1833H18.1802H18.1771H18.1741H18.171H18.168H18.1649H18.1619H18.1589H18.156H18.153H18.15H18.1471H18.1442H18.1412H18.1383H18.1355H18.1326H18.1297H18.1269H18.1241H18.1212H18.1184H18.1156H18.1129H18.1101H18.1074H18.1047H18.1019H18.0992H18.0966H18.0939H18.0912H18.0886H18.086H18.0834H18.0808H18.0782H18.0757H18.0731H18.0706H18.0681H18.0656H18.0631H18.0607H18.0582H18.0558H18.0534H18.051H18.0486H18.0463H18.0439H18.0416H18.0393H18.037H18.0347H18.0325C17.9368 22.5509 17.8766 22.5403 17.84 22.5294Z" fill="#CFCFCF" stroke="#CFCFCF" stroke-width="0.3"/>
</svg>
