<svg width="175" height="56" viewBox="0 0 175 56" fill="none" xmlns="http://www.w3.org/2000/svg">
<path d="M6.5 49.5C10.8988 50.2898 31.2649 51.603 35.8922 51.3398C40.5195 51.0765 41.1478 52.7219 46.0036 52.4586C50.8594 52.1953 166.998 52.7219 167.912 52.1954C168.769 51.603 169.626 48.554 169.626 45C169.626 41.446 172.025 34.4253 171.854 31.9901C171.626 29.555 169.626 26.001 169.626 24.8821C169.626 23.9607 169.226 18.169 168.941 14.8124C168.712 13.3645 168.198 11.2584 168.084 10.7319C167.627 8.82327 166.998 4.47948 165.227 4.47948C163.456 4.47948 55.4295 2.8341 35.2066 2.30758C14.9838 1.78106 14.4842 1.45193 9 2.30752C3.51582 3.0973 3.10139 5.33507 2.87288 7.50697C2.64437 9.67886 3.10137 25.8035 3.32988 28.2387C3.50126 30.608 2.10123 48.6444 6.5 49.5Z" fill="white"/>
<path d="M170 49.9119C170 49.9119 32.2141 49.1189 24.5844 48.7885C16.9548 48.4581 7.0738 50.1762 6 48.2599C4.9262 46.3436 2.37367 25 2.37367 25C2.37367 25 3.5 46.6079 3.5 48.7885C3.5 50.9692 2.37367 53.4802 10.0033 52.8855C17.633 52.2908 37.0179 53.4141 37.0179 53.4141C37.0179 53.4141 79.2354 54.2071 82.9654 54.2071C86.639 54.2071 134.564 55 143.89 55C153.215 55 166.1 55 166.948 54.2071C167.796 53.4141 170 49.9119 170 49.9119Z" fill="#CFCFCF"/>
<path d="M1.55916 32.2536C1.55916 32.2536 1.78767 16.7212 0.702255 9.08668C-0.383155 1.45214 6.958 0.859804 10.4999 0.859804C14.0417 0.859804 16.5264 0.399099 20.0682 0.0700236C23.6101 -0.193236 57.2578 0.333284 64.7414 0.859804C72.1679 1.45214 161.971 0.333284 166.37 1.97866C168.37 2.76844 170.54 3.95311 170.997 8.23108C171.854 11.9825 171.683 20.9334 171.683 22.118C171.626 24.3558 178 33 171.684 44.7584C169.626 51 167.684 55.3546 166.37 55.3546C165.056 55.3546 124.782 55.6179 110.9 55.3546C97.0181 55.0914 42.6905 54.8281 39.8341 54.5648C36.9778 54.3016 5.9993 54.8939 3.99986 52.4588C2.00042 50.0236 1.55916 32.2536 1.55916 32.2536ZM6.99986 50C11.3986 50.7898 31.2651 51.6032 35.8924 51.3399C40.5197 51.0766 41.1481 52.722 46.0038 52.4588C50.8596 52.1955 164.314 52.5265 165.228 52C166.084 51.4077 168.941 48.3124 168.941 44.7584C168.941 41.2044 172.026 34.4255 171.854 31.9903C171.626 29.5551 169.626 26.0011 169.626 24.8823C169.626 23.9609 169.226 18.1691 168.941 14.8126C168.712 13.3647 168.198 11.2586 168.084 10.7321C167.627 8.82342 166.998 4.47963 165.228 4.47963C163.457 4.47963 55.4298 2.83425 35.2069 2.30773C14.984 1.78121 14.984 2.14441 9.49986 3C4.01569 3.78978 3.10158 5.33522 2.87308 7.50712C2.64457 9.67901 3.10159 25.8037 3.33009 28.2388C3.50147 30.6082 2.6011 49.1444 6.99986 50Z" fill="black"/>
</svg>
