<svg width="276" height="56" viewBox="0 0 276 56" fill="none" xmlns="http://www.w3.org/2000/svg">
<rect width="100" height="2" transform="translate(10 27)" fill="#A7A7A7"/>
<path d="M138.273 32.5733H137.752L136.76 21.564V20.7822C136.76 19.566 137.169 18.9579 137.987 18.9579C138.462 18.9579 138.784 19.1316 138.953 19.4791C139.127 19.8223 139.223 20.2567 139.239 20.7822C139.239 21.1635 139.229 21.4242 139.208 21.564L138.273 32.5733ZM138.013 34.245C138.432 34.245 138.792 34.4018 139.093 34.7154C139.398 35.0248 139.551 35.3871 139.551 35.8024C139.551 36.2261 139.398 36.5927 139.093 36.902C138.788 37.2114 138.428 37.366 138.013 37.366C137.585 37.366 137.212 37.2114 136.894 36.902C136.58 36.5927 136.424 36.2261 136.424 35.8024C136.424 35.3786 136.582 35.0142 136.9 34.7091C137.218 34.3997 137.589 34.245 138.013 34.245Z" fill="#FF0000"/>
<rect x="120.72" y="10.72" width="34.56" height="34.56" rx="17.28" stroke="#FF0000" stroke-width="1.44"/>
<rect width="100" height="2" transform="translate(166 27)" fill="#A7A7A7"/>
</svg>
