<svg width="40" height="40" viewBox="0 0 40 40" fill="none" xmlns="http://www.w3.org/2000/svg">
<path d="M35.3893 11.5891C35.3893 11.5891 36.0466 20.1446 29.5499 27.4818C23.396 34.429 11.5932 35.295 5.32505 31.5359C11.1074 30.9364 13.5556 27.7673 13.5556 27.7673C8.56395 27.4818 6.49675 23.0662 6.49675 23.0662C8.46865 23.4468 10.5454 22.4095 10.5454 22.4095C10.5454 22.4095 8.4782 21.8481 6.2205 19.8686C3.96283 17.8891 3.58179 15.2626 3.58179 15.2626C4.80113 15.6432 7.24935 16.1095 7.24935 16.1095C7.24935 16.1095 4.89639 14.5107 4.51535 11.789C4.1343 9.0672 4.80113 6.1456 4.80113 6.1456C9.69755 14.0444 20.5191 13.9493 20.5191 13.9493C20.5191 13.9493 19.9571 11.0372 22.1196 7.83955C24.2819 4.642 30.312 3.60469 32.8459 7.08775C32.8459 7.08775 36.6087 6.43111 38.1138 5.11781C38.1138 5.11781 36.9802 7.8491 35.0083 9.0672C35.0083 9.0672 38.0185 8.50575 38.7711 8.0299C38.7806 8.01085 38.1138 9.99035 35.3893 11.5891Z" fill="#03A9F5"/>
<path d="M7.21119 16.1L8.46864 16.4807C8.46864 16.4807 4.01045 13.4068 4.82969 5.82202C4.82969 5.82202 3.63893 6.88792 3.69609 9.96177C3.76277 13.0261 6.45864 16.1 7.21119 16.1Z" fill="#0E95C4"/>
<path d="M3.57227 15.9097C3.57227 15.9097 5.58225 20.6109 12.2315 21.8005C12.2315 21.8005 10.5359 22.4857 9.65945 22.4857C9.65945 22.4952 3.88663 20.0494 3.57227 15.9097Z" fill="#0E95C4"/>
<path d="M6.21094 23.0567C6.21094 23.0567 10.0404 27.2535 14.6796 26.9394L13.1745 28.0053C13.1745 28.0053 7.90659 27.3772 6.21094 23.0567Z" fill="#0E95C4"/>
<path d="M35.3893 11.7128C35.3893 11.7128 34.9797 22.6093 24.3104 29.6326C13.6412 36.6559 6.65863 30.8317 6.65863 30.8317L3.7627 31.3932C3.7627 31.3932 9.09728 34.9619 17.0039 34.2101C24.9106 33.4583 30.1214 28.2527 33.5698 22.4285C33.5698 22.4285 36.0752 15.843 36.0752 11.5225L35.3893 11.7128Z" fill="#0E95C4"/>
<path d="M37.8376 8.01092C37.8376 8.01092 37.4566 10.2664 35.3894 11.7129C35.3894 11.7129 38.0281 11.2085 39.1522 7.63977L37.8376 8.01092Z" fill="#0E95C4"/>
<path d="M36.828 5.251C36.828 5.251 37.1423 7.6302 35.1323 8.88636C35.1323 8.88636 38.1425 7.7539 38.5236 4.62292L36.828 5.251Z" fill="#0E95C4"/>
<path d="M37.8376 7.54455C37.8376 7.54455 39.5332 5.19395 38.8759 3.69033C38.8759 3.69033 35.1131 5.66025 33.1317 5.94575C33.1317 5.94575 30.5883 3.30967 25.6919 3.88067C20.7955 4.45166 18.7282 10.4661 18.4425 12.7216C18.4425 12.7216 14.775 12.9119 10.7263 10.7516C6.6778 8.5914 4.99166 3.5 4.99166 3.5C4.99166 3.5 3.16266 6.04095 3.1055 8.0109C3.01024 11.3036 4.04858 13.559 5.2679 14.9675L1.60038 13.1784C1.60038 13.1784 2.4482 20.0399 8.6592 22.1145C8.6592 22.1145 6.8683 22.2096 4.80115 22.2096C4.80115 22.2096 5.1822 25.2169 11.5742 28.129C7.3446 31.0506 0 30.1084 0 30.1084C0 30.1084 5.17265 35.0951 14.9655 35C24.7583 34.9048 30.5883 27.7578 32.8459 24.5602C35.1036 21.3627 36.704 12.0554 36.704 12.0554C36.704 12.0554 39.2475 9.70485 40 7.35425L37.8376 7.54455ZM35.3894 11.5891C35.3894 11.5891 36.0467 20.1445 29.5499 27.4818C23.396 34.429 11.5933 35.295 5.3251 31.5359C11.1074 30.9364 13.5556 27.7673 13.5556 27.7673C8.56395 27.4818 6.4968 23.0661 6.4968 23.0661C8.4687 23.4468 10.5454 22.4095 10.5454 22.4095C10.5454 22.4095 8.4782 21.848 6.22055 19.8686C3.96285 17.8891 3.5818 15.2625 3.5818 15.2625C4.80115 15.6432 7.24935 16.1095 7.24935 16.1095C7.24935 16.1095 4.8964 14.5107 4.51536 11.7889C4.13432 9.0672 4.80115 6.1456 4.80115 6.1456C9.69755 14.0444 20.5191 13.9492 20.5191 13.9492C20.5191 13.9492 19.9572 11.0371 22.1196 7.8396C24.2819 4.642 30.312 3.60469 32.8459 7.08775C32.8459 7.08775 36.6087 6.4311 38.1138 5.1178C38.1138 5.1178 36.9803 7.8491 35.0084 9.0672C35.0084 9.0672 38.0186 8.50575 38.7711 8.0299C38.7806 8.0109 38.1138 9.99035 35.3894 11.5891Z" fill="black"/>
</svg>
